<svg width="17" height="14" viewBox="0 0 17 14" fill="none" xmlns="http://www.w3.org/2000/svg">
<path fill-rule="evenodd" clip-rule="evenodd" d="M7.29294 0.292919C7.48154 0.110761 7.73414 0.00996641 7.99634 0.0122448C8.25854 0.0145233 8.50935 0.119692 8.69476 0.3051C8.88016 0.490508 8.98533 0.741321 8.98761 1.00352C8.98989 1.26571 8.8891 1.51832 8.70694 1.70692L4.41394 5.99992H15.9999C16.2652 5.99992 16.5195 6.10528 16.707 6.29281C16.8946 6.48035 16.9999 6.7347 16.9999 6.99992C16.9999 7.26514 16.8946 7.51949 16.707 7.70703C16.5195 7.89456 16.2652 7.99992 15.9999 7.99992H4.41394L8.70694 12.2929C8.87911 12.4651 8.98254 12.6942 8.99783 12.9372C9.01311 13.1803 8.93919 13.4205 8.78994 13.6129L8.70694 13.7069C8.51941 13.8944 8.2651 13.9997 7.99994 13.9997C7.73477 13.9997 7.48047 13.8944 7.29294 13.7069L0.585938 6.99992L7.29294 0.292919Z" fill="black"/>
</svg>
