<svg width="17" height="14" viewBox="0 0 17 14" fill="none" xmlns="http://www.w3.org/2000/svg">
<path fill-rule="evenodd" clip-rule="evenodd" d="M9.70706 0.292919C9.51846 0.110761 9.26586 0.00996641 9.00366 0.0122448C8.74146 0.0145233 8.49065 0.119692 8.30524 0.3051C8.11984 0.490508 8.01467 0.741321 8.01239 1.00352C8.01011 1.26571 8.1109 1.51832 8.29306 1.70692L12.5861 5.99992H1.00006C0.734846 5.99992 0.480492 6.10528 0.292955 6.29281C0.105419 6.48035 6.29425e-05 6.7347 6.29425e-05 6.99992C6.29425e-05 7.26514 0.105419 7.51949 0.292955 7.70703C0.480492 7.89456 0.734846 7.99992 1.00006 7.99992H12.5861L8.29306 12.2929C8.12089 12.4651 8.01746 12.6942 8.00217 12.9372C7.98689 13.1803 8.06081 13.4205 8.21006 13.6129L8.29306 13.7069C8.48059 13.8944 8.7349 13.9997 9.00006 13.9997C9.26523 13.9997 9.51953 13.8944 9.70706 13.7069L16.4141 6.99992L9.70706 0.292919Z" fill="black"/>
</svg>
